<svg xmlns:xlink="http://www.w3.org/1999/xlink" height="494" viewBox="0 0 1042 494" width="1042" xmlns="http://www.w3.org/2000/svg">
    <defs/>
    <g transform="translate(-677.77,-2934.00)">
        <path d="M1028.0,492.0C1034.6,492.0,1040.0,486.6,1040.0,480.0L1040.0,12.0C1040.0,5.4,1034.6,.0,1028.0,.0L12.0,.0C5.4,.0,.0,5.4,.0,12.0L.0,480.0C.0,486.6,5.4,492.0,12.0,492.0L1028.0,492.0z" id="shape1" fill-rule="nonzero" stroke="#323232" transform="translate(678.77,2935.00)" fill="#ffffff"/>
        <g id="group2" transform="translate(699.27,3278.67)">
            <path d="M11.0,.0L990.0,.0C996.1,.0,1001.0,4.9,1001.0,11.0L1001.0,125.0C1001.0,131.1,996.1,136.0,990.0,136.0L11.0,136.0C4.9,136.0,.0,131.1,.0,125.0L.0,11.0C.0,4.9,4.9,.0,11.0,.0z" id="shape3" fill-rule="nonzero" stroke="#323232" fill="#7c7c7c"/>
            <g id="shape4" transform="translate(10.00,0.00)">
                <text xml:space="preserve" style="fill:#191919;font-family:Microsoft YaHei;font-size:10.00pt">
                    <tspan x="428.9" y="19.1">H CLOCK DOMAIN</tspan>
                </text>
            </g>
        </g>
        <g id="group5" transform="translate(699.26,2948.00)">
            <path d="M11.0,.0L775.2,.0C781.3,.0,786.2,4.9,786.2,11.0L786.2,220.9C786.2,227.0,781.3,231.9,775.2,231.9L11.0,231.9C4.9,231.9,.0,227.0,.0,220.9L.0,11.0C.0,4.9,4.9,.0,11.0,.0z" id="shape6" fill-rule="nonzero" stroke="#323232" fill="#cecbba"/>
            <g id="shape7" transform="translate(10.00,0.00)">
                <text xml:space="preserve" style="fill:#191919;font-family:Microsoft YaHei;font-size:10.00pt">
                    <tspan x="313.5" y="19.1">PHY CLOCK DOMAIN</tspan>
                </text>
            </g>
        </g>
        <g id="group8" transform="translate(879.77,2990.00)">
            <path d="M11.0,.0L261.0,.0C267.1,.0,272.0,4.9,272.0,11.0L272.0,162.5C272.0,168.6,267.1,173.5,261.0,173.5L11.0,173.5C4.9,173.5,.0,168.6,.0,162.5L.0,11.0C.0,4.9,4.9,.0,11.0,.0z" id="shape9" fill-rule="nonzero" stroke="#323232" fill="#f3efdc"/>
            <g id="shape10" transform="translate(10.00,0.00)">
                <text xml:space="preserve" style="fill:#191919;font-family:Microsoft YaHei;font-size:10.00pt">
                    <tspan x="111.6" y="19.1">core</tspan>
                </text>
            </g>
        </g>
        <g id="group11" transform="translate(954.27,3029.76)">
            <path d="M11.0,.0L112.0,.0C118.1,.0,123.0,4.9,123.0,11.0L123.0,23.7C123.0,29.8,118.1,34.7,112.0,34.7L11.0,34.7C4.9,34.7,.0,29.8,.0,23.7L.0,11.0C.0,4.9,4.9,.0,11.0,.0z" id="shape12" fill-rule="nonzero" stroke="#323232" fill="#e6dfd0"/>
            <g id="shape13" transform="translate(10.00,0.00)">
                <text xml:space="preserve" style="fill:#191919;font-family:Microsoft YaHei;font-size:10.00pt">
                    <tspan x="33.1" y="19.1">sie_rx</tspan>
                </text>
            </g>
        </g>
        <g id="group14" transform="translate(954.27,3102.00)">
            <path d="M11.0,.0L112.0,.0C118.1,.0,123.0,4.9,123.0,11.0L123.0,23.7C123.0,29.8,118.1,34.7,112.0,34.7L11.0,34.7C4.9,34.7,.0,29.8,.0,23.7L.0,11.0C.0,4.9,4.9,.0,11.0,.0z" id="shape15" fill-rule="nonzero" stroke="#323232" fill="#e6dfd0"/>
            <g id="shape16" transform="translate(10.00,0.00)">
                <text xml:space="preserve" style="fill:#191919;font-family:Microsoft YaHei;font-size:10.00pt">
                    <tspan x="33.1" y="19.1">sie_tx</tspan>
                </text>
            </g>
        </g>
        <g id="group17" transform="translate(699.28,3211.55)">
            <path d="M11.0,.0L775.2,.0C781.3,.0,786.2,4.9,786.2,11.0L786.2,23.7C786.2,29.7,781.3,34.7,775.2,34.7L11.0,34.7C4.9,34.7,.0,29.7,.0,23.7L.0,11.0C.0,4.9,4.9,.0,11.0,.0z" id="shape18" fill-rule="nonzero" stroke="#323232" fill="#f1c3dc"/>
            <g id="shape19" transform="translate(10.00,0.00)">
                <text xml:space="preserve" style="fill:#191919;font-family:Microsoft YaHei;font-size:10.00pt">
                    <tspan x="365.1" y="19.1">SYNC</tspan>
                </text>
            </g>
        </g>
        <g id="shape20" transform="translate(1435.77,3353.50)">
            <path d="M.0,.0L.0,31.2L-708.2,31.2" stroke-width="3" stroke="#191919" fill="none"/>
            <path d="M-708.2,36.1L-718.0,31.2L-708.2,26.3L-708.2,36.1" stroke-width="1" stroke-linecap="round" stroke="#191919" fill="#191919"/>
            <rect x="-483.6" y="20.9" height="18.4" width="56.0" fill="#ffffff"/>
            <text xml:space="preserve" style="fill:#191919;font-family:Microsoft YaHei;font-size:10.00pt">
                <tspan x="-483.6" y="35.3">interrupt</tspan>
            </text>
        </g>
        <g id="group21" transform="translate(717.77,3089.88)">
            <path d="M11.0,.0L83.0,.0C89.1,.0,94.0,4.9,94.0,11.0L94.0,41.0C94.0,47.1,89.1,52.0,83.0,52.0L11.0,52.0C4.9,52.0,.0,47.1,.0,41.0L.0,11.0C.0,4.9,4.9,.0,11.0,.0z" id="shape22" fill-rule="nonzero" stroke="#323232" fill="#cbcbcb"/>
            <path/>
        </g>
        <g id="shape23" transform="translate(811.77,3115.88)">
            <path d="M13.1,.0L36.0,.0L36.0,-39.1L54.9,-39.1" stroke-width="3" stroke="#191919" fill="none"/>
            <path d="M13.1,6.5L.0,.0L13.1,-6.5L13.1,6.5" stroke-width="1" stroke-linecap="round" stroke="#191919" fill="#191919"/>
            <path d="M54.9,-45.7L68.0,-39.1L54.9,-32.6L54.9,-45.7" stroke-width="1" stroke-linecap="round" stroke="#191919" fill="#191919"/>
            <rect x="19.0" y="-25.3" height="18.4" width="36.0" fill="#ffffff"/>
            <text xml:space="preserve" style="fill:#191919;font-family:Microsoft YaHei;font-size:10.00pt">
                <tspan x="19.0" y="-10.9">UTMI</tspan>
            </text>
        </g>
        <g id="shape24" transform="translate(764.77,3089.88)">
            <path d="M.0,-13.1L.0,-44.6" stroke-width="3" stroke="#191919" fill="none"/>
            <path d="M6.5,-13.1L.0,.0L-6.5,-13.1L6.5,-13.1" stroke-width="1" stroke-linecap="round" stroke="#191919" fill="#191919"/>
            <path d="M-6.5,-44.6L.0,-57.6L6.5,-44.6L-6.5,-44.6" stroke-width="1" stroke-linecap="round" stroke="#191919" fill="#191919"/>
            <rect x="-13.8" y="-42.3" height="18.4" width="29.6" fill="#ffffff"/>
            <text xml:space="preserve" style="fill:#191919;font-family:Microsoft YaHei;font-size:10.00pt">
                <tspan x="-13.8" y="-27.9">ULPI</tspan>
            </text>
        </g>
        <g id="group25" transform="translate(717.77,3004.74)">
            <path d="M11.0,.0L83.0,.0C89.1,.0,94.0,4.9,94.0,11.0L94.0,16.5C94.0,22.6,89.1,27.5,83.0,27.5L11.0,27.5C4.9,27.5,.0,22.6,.0,16.5L.0,11.0C.0,4.9,4.9,.0,11.0,.0z" id="shape26" fill-rule="nonzero" stroke="#323232" fill="#cbcbcb" stroke-dasharray="2.5,2.5"/>
            <g id="shape27" transform="translate(10.00,0.00)">
                <text xml:space="preserve" style="fill:#191919;font-family:Microsoft YaHei;font-size:10.00pt">
                    <tspan x="23.8" y="19.1">PHY</tspan>
                </text>
            </g>
        </g>
        <g id="shape28" transform="translate(1077.27,3047.13)">
            <path d="M.0,.0L22.0,.0" stroke="#191919" fill="none"/>
            <path d="M22.0,-3.0L28.0,.0L22.0,3.0L22.0,-3.0" stroke-width="1" stroke-linecap="round" stroke="#191919" fill="#191919"/>
        </g>
        <g id="shape29" transform="translate(1105.27,3119.37)">
            <path d="M.0,.0L-22.0,.0" stroke="#191919" fill="none"/>
            <path d="M-22.0,3.0L-28.0,.0L-22.0,-3.0L-22.0,3.0" stroke-width="1" stroke-linecap="round" stroke="#191919" fill="#191919"/>
        </g>
        <g id="group30" transform="translate(879.77,3318.84)">
            <path d="M11.0,.0L220.0,.0C226.1,.0,231.0,4.9,231.0,11.0L231.0,23.7C231.0,29.7,226.1,34.7,220.0,34.7L11.0,34.7C4.9,34.7,.0,29.7,.0,23.7L.0,11.0C.0,4.9,4.9,.0,11.0,.0z" id="shape31" fill-rule="nonzero" stroke="#323232" fill="#cbcbcb"/>
            <g id="shape32" transform="translate(10.00,0.00)">
                <text xml:space="preserve" style="fill:#191919;font-family:Microsoft YaHei;font-size:10.00pt">
                    <tspan x="93.9" y="19.1">BIU</tspan>
                </text>
            </g>
        </g>
        <g id="group33" transform="translate(717.77,3321.67)">
            <path d="M11.0,.0L83.0,.0C89.1,.0,94.0,4.9,94.0,11.0L94.0,18.0C94.0,24.1,89.1,29.0,83.0,29.0L11.0,29.0C4.9,29.0,.0,24.1,.0,18.0L.0,11.0C.0,4.9,4.9,.0,11.0,.0z" id="shape34" fill-rule="nonzero" stroke="#323232" fill="#cbcbcb" stroke-dasharray="2.5,2.5"/>
            <g id="shape35" transform="translate(10.00,0.00)">
                <text xml:space="preserve" style="fill:#191919;font-family:Microsoft YaHei;font-size:10.00pt">
                    <tspan x="9.0" y="19.1">AHB/ICB</tspan>
                </text>
            </g>
        </g>
        <g id="shape36" transform="translate(811.77,3336.17)">
            <path d="M13.1,.0L54.9,.0" stroke-width="3" stroke="#191919" fill="none"/>
            <path d="M13.1,6.5L.0,.0L13.1,-6.5L13.1,6.5" stroke-width="1" stroke-linecap="round" stroke="#191919" fill="#191919"/>
            <path d="M54.9,-6.5L68.0,.0L54.9,6.5L54.9,-6.5" stroke-width="1" stroke-linecap="round" stroke="#191919" fill="#191919"/>
        </g>
        <g id="shape37" transform="translate(1110.77,3336.17)">
            <path d="M13.1,.0L81.9,.0" stroke-width="3" stroke="#191919" fill="none"/>
            <path d="M13.1,6.5L.0,.0L13.1,-6.5L13.1,6.5" stroke-width="1" stroke-linecap="round" stroke="#191919" fill="#191919"/>
            <path d="M81.9,-6.5L95.0,.0L81.9,6.5L81.9,-6.5" stroke-width="1" stroke-linecap="round" stroke="#191919" fill="#191919"/>
        </g>
        <g id="shape38" transform="translate(1310.77,3162.19)">
            <path d="M.0,13.1L.0,17.4L.2,17.4L.2,36.3" stroke-width="3" stroke="#191919" fill="none"/>
            <path d="M-6.5,13.1L.0,.0L6.5,13.1L-6.5,13.1" stroke-width="1" stroke-linecap="round" stroke="#191919" fill="#191919"/>
            <path d="M6.7,36.3L.2,49.4L-6.4,36.3L6.7,36.3" stroke-width="1" stroke-linecap="round" stroke="#191919" fill="#191919"/>
        </g>
        <g id="shape39" transform="translate(1151.77,3076.75)">
            <path d="M13.1,.0L35.2,.0" stroke-width="3" stroke="#191919" fill="none"/>
            <path d="M13.1,6.5L.0,.0L13.1,-6.5L13.1,6.5" stroke-width="1" stroke-linecap="round" stroke="#191919" fill="#191919"/>
            <path d="M35.2,-6.5L48.3,.0L35.2,6.5L35.2,-6.5" stroke-width="1" stroke-linecap="round" stroke="#191919" fill="#191919"/>
        </g>
        <g id="shape40" transform="translate(1608.87,3246.21)">
            <path d="M.0,13.1L.0,40.6L-0.1,40.6L-0.1,59.6" stroke-width="3" stroke="#191919" fill="none"/>
            <path d="M-6.5,13.1L.0,.0L6.5,13.1L-6.5,13.1" stroke-width="1" stroke-linecap="round" stroke="#191919" fill="#191919"/>
            <path d="M6.4,59.6L-0.1,72.6L-6.6,59.6L6.4,59.6" stroke-width="1" stroke-linecap="round" stroke="#191919" fill="#191919"/>
        </g>
        <g id="group41" transform="translate(1200.02,2991.31)">
            <g id="group42">
                <path d="M11.0,.0L210.5,.0C216.6,.0,221.5,4.9,221.5,11.0L221.5,159.9C221.5,166.0,216.6,170.9,210.5,170.9L11.0,170.9C4.9,170.9,.0,166.0,.0,159.9L.0,11.0C.0,4.9,4.9,.0,11.0,.0z" id="shape43" fill-rule="nonzero" stroke="#323232" fill="#bcbcbc"/>
                <g id="shape44" transform="translate(10.00,0.00)">
                    <text xml:space="preserve" style="fill:#191919;font-family:Microsoft YaHei;font-size:10.00pt">
                        <tspan x="88.0" y="19.1">EPU</tspan>
                    </text>
                </g>
            </g>
            <g id="group45" transform="translate(30.25,39.76)">
                <path d="M11.0,.0L150.0,.0C156.1,.0,161.0,4.9,161.0,11.0L161.0,22.4C161.0,28.5,156.1,33.4,150.0,33.4L11.0,33.4C4.9,33.4,.0,28.5,.0,22.4L.0,11.0C.0,4.9,4.9,.0,11.0,.0z" id="shape46" fill-rule="nonzero" stroke="#323232" fill="#e6dfd0"/>
                <g id="shape47" transform="translate(10.00,0.00)">
                    <text xml:space="preserve" style="fill:#191919;font-family:Microsoft YaHei;font-size:10.00pt">
                        <tspan x="45.7" y="19.1">sie_ep0</tspan>
                    </text>
                </g>
            </g>
            <g id="group48" transform="translate(30.25,115.67)">
                <path d="M11.0,.0L150.0,.0C156.1,.0,161.0,4.9,161.0,11.0L161.0,18.8C161.0,24.8,156.1,29.8,150.0,29.8L11.0,29.8C4.9,29.8,.0,24.8,.0,18.8L.0,11.0C.0,4.9,4.9,.0,11.0,.0z" id="shape49" fill-rule="nonzero" stroke="#323232" fill="#e6dfd0"/>
                <g id="shape50" transform="translate(10.00,0.00)">
                    <text xml:space="preserve" style="fill:#191919;font-family:Microsoft YaHei;font-size:10.00pt">
                        <tspan x="46.1" y="19.1">sie_epx</tspan>
                    </text>
                </g>
            </g>
        </g>
        <g id="group51" transform="translate(1520.48,2948.01)">
            <g id="group52">
                <path d="M11.0,.0L165.8,.0C171.8,.0,176.8,4.9,176.8,11.0L176.8,287.2C176.8,293.3,171.8,298.2,165.8,298.2L11.0,298.2C4.9,298.2,.0,293.3,.0,287.2L.0,11.0C.0,4.9,4.9,.0,11.0,.0z" id="shape53" fill-rule="nonzero" stroke="#323232" fill="#f1c3dc"/>
                <g id="shape54" transform="translate(10.00,0.00)">
                    <text xml:space="preserve" style="fill:#191919;font-family:Microsoft YaHei;font-size:10.00pt">
                        <tspan x="61.2" y="19.1">MEM</tspan>
                    </text>
                </g>
            </g>
            <g id="group55" transform="translate(15.02,66.85)">
                <path d="M11.0,.0L56.0,.0C62.1,.0,67.0,4.9,67.0,11.0L67.0,41.3C67.0,47.4,62.1,52.3,56.0,52.3L11.0,52.3C4.9,52.3,.0,47.4,.0,41.3L.0,11.0C.0,4.9,4.9,.0,11.0,.0z" id="shape56" fill-rule="nonzero" stroke="#323232" fill="#dadada"/>
                <g id="shape57" transform="translate(10.00,0.00)">
                    <text xml:space="preserve" style="fill:#191919;font-family:Microsoft YaHei;font-size:10.00pt">
                        <tspan x="4.3" y="19.1">rx fifo</tspan>
                    </text>
                </g>
            </g>
            <g id="group58" transform="translate(94.75,66.85)">
                <path d="M11.0,.0L56.0,.0C62.1,.0,67.0,4.9,67.0,11.0L67.0,41.3C67.0,47.4,62.1,52.3,56.0,52.3L11.0,52.3C4.9,52.3,.0,47.4,.0,41.3L.0,11.0C.0,4.9,4.9,.0,11.0,.0z" id="shape59" fill-rule="nonzero" stroke="#323232" fill="#dadada"/>
                <g id="shape60" transform="translate(10.00,0.00)">
                    <text xml:space="preserve" style="fill:#191919;font-family:Microsoft YaHei;font-size:10.00pt">
                        <tspan x="4.3" y="19.1">tx fifo</tspan>
                    </text>
                </g>
            </g>
            <g id="group61" transform="translate(15.02,202.67)">
                <path d="M11.0,.0L56.0,.0C62.1,.0,67.0,4.9,67.0,11.0L67.0,41.3C67.0,47.4,62.1,52.3,56.0,52.3L11.0,52.3C4.9,52.3,.0,47.4,.0,41.3L.0,11.0C.0,4.9,4.9,.0,11.0,.0z" id="shape62" fill-rule="nonzero" stroke="#323232" fill="#dadada"/>
                <g id="shape63" transform="translate(10.00,0.00)">
                    <text xml:space="preserve" style="fill:#191919;font-family:Microsoft YaHei;font-size:10.00pt">
                        <tspan x="4.3" y="19.1">rx fifo</tspan>
                    </text>
                </g>
            </g>
            <g id="group64" transform="translate(94.75,202.67)">
                <path d="M11.0,.0L56.0,.0C62.1,.0,67.0,4.9,67.0,11.0L67.0,41.3C67.0,47.4,62.1,52.3,56.0,52.3L11.0,52.3C4.9,52.3,.0,47.4,.0,41.3L.0,11.0C.0,4.9,4.9,.0,11.0,.0z" id="shape65" fill-rule="nonzero" stroke="#323232" fill="#dadada"/>
                <g id="shape66" transform="translate(10.00,0.00)">
                    <text xml:space="preserve" style="fill:#191919;font-family:Microsoft YaHei;font-size:10.00pt">
                        <tspan x="4.3" y="19.1">tx fifo</tspan>
                    </text>
                </g>
            </g>
        </g>
        <g id="shape67" transform="translate(1250.77,3056.25)">
            <text xml:space="preserve" style="fill:#191919;font-family:Microsoft YaHei;font-size:14.00pt">
                <tspan x="45.6" y="26.4">......</tspan>
            </text>
        </g>
        <g id="group68" transform="translate(1205.77,3318.84)">
            <path d="M11.0,.0L449.0,.0C455.1,.0,460.0,4.9,460.0,11.0L460.0,23.7C460.0,29.7,455.1,34.7,449.0,34.7L11.0,34.7C4.9,34.7,.0,29.7,.0,23.7L.0,11.0C.0,4.9,4.9,.0,11.0,.0z" id="shape69" fill-rule="nonzero" stroke="#323232" fill="#f3efdc"/>
            <g id="shape70" transform="translate(10.00,0.00)">
                <text xml:space="preserve" style="fill:#191919;font-family:Microsoft YaHei;font-size:10.00pt">
                    <tspan x="207.2" y="19.1">CSR</tspan>
                </text>
            </g>
        </g>
        <g id="shape71" transform="translate(1435.71,3250.00)">
            <path d="M.0,13.1L.0,55.8" stroke-width="3" stroke="#191919" fill="none"/>
            <path d="M-6.5,13.1L.0,.0L6.5,13.1L-6.5,13.1" stroke-width="1" stroke-linecap="round" stroke="#191919" fill="#191919"/>
            <path d="M6.5,55.8L.0,68.8L-6.5,55.8L6.5,55.8" stroke-width="1" stroke-linecap="round" stroke="#191919" fill="#191919"/>
        </g>
        <g id="shape72" transform="translate(1015.77,3163.50)">
            <path d="M.0,13.1L.0,16.1L.2,16.1L.2,35.0" stroke-width="3" stroke="#191919" fill="none"/>
            <path d="M-6.5,13.1L.0,.0L6.5,13.1L-6.5,13.1" stroke-width="1" stroke-linecap="round" stroke="#191919" fill="#191919"/>
            <path d="M6.7,35.0L.2,48.1L-6.3,35.0L6.7,35.0" stroke-width="1" stroke-linecap="round" stroke="#191919" fill="#191919"/>
        </g>
        <g id="shape73" transform="translate(720.96,3086.67)">
            <text xml:space="preserve" style="fill:#191919;font-family:Microsoft YaHei;font-size:10.00pt">
                <tspan x="29.0" y="23.8">ULPI </tspan>
                <tspan x="17.4" y="42.2">wrapper</tspan>
            </text>
        </g>
        <g id="shape74" transform="translate(1421.52,3076.75)">
            <path d="M13.1,.0L66.0,.0L66.0,-0.1L85.9,-0.1" stroke-width="3" stroke="#191919" fill="none"/>
            <path d="M13.1,6.5L.0,.0L13.1,-6.5L13.1,6.5" stroke-width="1" stroke-linecap="round" stroke="#191919" fill="#191919"/>
            <path d="M85.9,-6.6L99.0,-0.1L85.9,6.4L85.9,-6.6" stroke-width="1" stroke-linecap="round" stroke="#191919" fill="#191919"/>
        </g>
    </g>
</svg>
