<svg viewBox="0 0 1042 494" xmlns:xlink="http://www.w3.org/1999/xlink" xmlns="http://www.w3.org/2000/svg" width="1042" height="494">
    <defs/>
    <g id="group1" transform="translate(1.00,1.00)">
        <path fill="#ffffff" d="M1028.0,492.0C1034.6,492.0,1040.0,486.6,1040.0,480.0L1040.0,12.0C1040.0,5.4,1034.6,.0,1028.0,.0L12.0,.0C5.4,.0,.0,5.4,.0,12.0L.0,480.0C.0,486.6,5.4,492.0,12.0,492.0L1028.0,492.0z" stroke="#323232" id="shape2" fill-rule="nonzero" transform="translate(0.00,-0.00)"/>
        <g id="group3" transform="translate(19.50,341.00)">
            <path fill="#7c7c7c" d="M11.0,.0L990.0,.0C996.1,.0,1001.0,4.9,1001.0,11.0L1001.0,125.0C1001.0,131.1,996.1,136.0,990.0,136.0L11.0,136.0C4.9,136.0,.0,131.1,.0,125.0L.0,11.0C.0,4.9,4.9,.0,11.0,.0z" stroke="#323232" id="shape4" fill-rule="nonzero"/>
            <g id="shape5" transform="translate(10.00,0.00)">
                <text xml:space="preserve" style="fill:#191919;font-family:Microsoft YaHei;font-size:10.00pt">
                    <tspan y="17.5" x="430.8">H CLOCK DOMAIN</tspan>
                </text>
            </g>
        </g>
        <g id="group6" transform="translate(19.50,14.12)">
            <path fill="#cecbba" d="M11.0,.0L990.0,.0C996.1,.0,1001.0,4.9,1001.0,11.0L1001.0,220.9C1001.0,227.0,996.1,231.9,990.0,231.9L11.0,231.9C4.9,231.9,.0,227.0,.0,220.9L.0,11.0C.0,4.9,4.9,.0,11.0,.0z" stroke="#323232" id="shape7" fill-rule="nonzero"/>
            <g id="shape8" transform="translate(10.00,0.00)">
                <text xml:space="preserve" style="fill:#191919;font-family:Microsoft YaHei;font-size:10.00pt">
                    <tspan y="17.5" x="422.8">PHY CLOCK DOMAIN</tspan>
                </text>
            </g>
        </g>
        <g id="group9" transform="translate(200.00,56.12)">
            <path fill="#f3efdc" d="M11.0,.0L261.0,.0C267.1,.0,272.0,4.9,272.0,11.0L272.0,162.5C272.0,168.6,267.1,173.5,261.0,173.5L11.0,173.5C4.9,173.5,.0,168.6,.0,162.5L.0,11.0C.0,4.9,4.9,.0,11.0,.0z" stroke="#323232" id="shape10" fill-rule="nonzero"/>
            <g id="shape11" transform="translate(10.00,0.00)">
                <text xml:space="preserve" style="fill:#191919;font-family:Microsoft YaHei;font-size:10.00pt">
                    <tspan y="17.5" x="112.0">core</tspan>
                </text>
            </g>
        </g>
        <g id="group12" transform="translate(274.50,95.88)">
            <path fill="#e6dfd0" d="M11.0,.0L112.0,.0C118.1,.0,123.0,4.9,123.0,11.0L123.0,23.7C123.0,29.8,118.1,34.7,112.0,34.7L11.0,34.7C4.9,34.7,.0,29.8,.0,23.7L.0,11.0C.0,4.9,4.9,.0,11.0,.0z" stroke="#323232" id="shape13" fill-rule="nonzero"/>
            <g id="shape14" transform="translate(10.00,0.00)">
                <text xml:space="preserve" style="fill:#191919;font-family:Microsoft YaHei;font-size:10.00pt">
                    <tspan y="17.5" x="34.1">sie_rx</tspan>
                </text>
            </g>
        </g>
        <g id="group15" transform="translate(274.50,168.12)">
            <path fill="#e6dfd0" d="M11.0,.0L112.0,.0C118.1,.0,123.0,4.9,123.0,11.0L123.0,23.7C123.0,29.8,118.1,34.7,112.0,34.7L11.0,34.7C4.9,34.7,.0,29.8,.0,23.7L.0,11.0C.0,4.9,4.9,.0,11.0,.0z" stroke="#323232" id="shape16" fill-rule="nonzero"/>
            <g id="shape17" transform="translate(10.00,0.00)">
                <text xml:space="preserve" style="fill:#191919;font-family:Microsoft YaHei;font-size:10.00pt">
                    <tspan y="17.5" x="34.1">sie_tx</tspan>
                </text>
            </g>
        </g>
        <g id="group18" transform="translate(19.50,277.67)">
            <path fill="#f1c3dc" d="M11.0,.0L990.0,.0C996.1,.0,1001.0,4.9,1001.0,11.0L1001.0,23.7C1001.0,29.7,996.1,34.7,990.0,34.7L11.0,34.7C4.9,34.7,.0,29.7,.0,23.7L.0,11.0C.0,4.9,4.9,.0,11.0,.0z" stroke="#323232" id="shape19" fill-rule="nonzero"/>
            <g id="shape20" transform="translate(10.00,0.00)">
                <text xml:space="preserve" style="fill:#191919;font-family:Microsoft YaHei;font-size:10.00pt">
                    <tspan y="17.5" x="473.1">SYNC</tspan>
                </text>
            </g>
        </g>
        <g id="shape21" transform="translate(756.00,415.83)">
            <path fill="none" d="M.0,.0L.0,31.2L-708.2,31.2" stroke="#191919" stroke-width="3"/>
            <path fill="#191919" d="M-708.2,36.1L-718.0,31.2L-708.2,26.3L-708.2,36.1" stroke-linecap="round" stroke="#191919" stroke-width="1"/>
            <rect fill="#ffffff" y="20.0" x="-483.6" width="56.0" height="17.1"/>
            <text xml:space="preserve" style="fill:#191919;font-family:Microsoft YaHei;font-size:10.00pt">
                <tspan y="33.7" x="-483.6">interrupt</tspan>
            </text>
        </g>
        <g id="group22" transform="translate(38.00,156.00)">
            <path fill="#cbcbcb" d="M11.0,.0L83.0,.0C89.1,.0,94.0,4.9,94.0,11.0L94.0,41.0C94.0,47.1,89.1,52.0,83.0,52.0L11.0,52.0C4.9,52.0,.0,47.1,.0,41.0L.0,11.0C.0,4.9,4.9,.0,11.0,.0z" stroke="#323232" id="shape23" fill-rule="nonzero"/>
            <path/>
        </g>
        <g id="shape24" transform="translate(132.00,182.00)">
            <path fill="none" d="M13.1,.0L36.0,.0L36.0,-39.1L54.9,-39.1" stroke="#191919" stroke-width="3"/>
            <path fill="#191919" d="M13.1,6.5L.0,.0L13.1,-6.5L13.1,6.5" stroke-linecap="round" stroke="#191919" stroke-width="1"/>
            <path fill="#191919" d="M54.9,-45.7L68.0,-39.1L54.9,-32.6L54.9,-45.7" stroke-linecap="round" stroke="#191919" stroke-width="1"/>
            <rect fill="#ffffff" y="-26.3" x="20.1" width="33.7" height="17.1"/>
            <text xml:space="preserve" style="fill:#191919;font-family:Microsoft YaHei;font-size:10.00pt">
                <tspan y="-12.5" x="20.1">UTMI</tspan>
            </text>
        </g>
        <g id="shape25" transform="translate(85.00,156.00)">
            <path fill="none" d="M.0,-13.1L.0,-44.6" stroke="#191919" stroke-width="3"/>
            <path fill="#191919" d="M6.5,-13.1L.0,.0L-6.5,-13.1L6.5,-13.1" stroke-linecap="round" stroke="#191919" stroke-width="1"/>
            <path fill="#191919" d="M-6.5,-44.6L.0,-57.6L6.5,-44.6L-6.5,-44.6" stroke-linecap="round" stroke="#191919" stroke-width="1"/>
            <rect fill="#ffffff" y="-43.2" x="-13.3" width="28.6" height="17.1"/>
            <text xml:space="preserve" style="fill:#191919;font-family:Microsoft YaHei;font-size:10.00pt">
                <tspan y="-29.5" x="-13.3">ULPI</tspan>
            </text>
        </g>
        <g id="group26" transform="translate(38.00,70.86)">
            <path fill="#cbcbcb" stroke-dasharray="2.5,2.5" d="M11.0,.0L83.0,.0C89.1,.0,94.0,4.9,94.0,11.0L94.0,16.5C94.0,22.6,89.1,27.5,83.0,27.5L11.0,27.5C4.9,27.5,.0,22.6,.0,16.5L.0,11.0C.0,4.9,4.9,.0,11.0,.0z" stroke="#323232" id="shape27" fill-rule="nonzero"/>
            <g id="shape28" transform="translate(10.00,0.00)">
                <text xml:space="preserve" style="fill:#191919;font-family:Microsoft YaHei;font-size:10.00pt">
                    <tspan y="17.5" x="23.9">PHY</tspan>
                </text>
            </g>
        </g>
        <g id="shape29" transform="translate(397.50,113.25)">
            <path fill="none" d="M.0,.0L22.0,.0" stroke="#191919"/>
            <path fill="#191919" d="M22.0,-3.0L28.0,.0L22.0,3.0L22.0,-3.0" stroke-linecap="round" stroke="#191919" stroke-width="1"/>
        </g>
        <g id="shape30" transform="translate(425.50,185.49)">
            <path fill="none" d="M.0,.0L-22.0,.0" stroke="#191919"/>
            <path fill="#191919" d="M-22.0,3.0L-28.0,.0L-22.0,-3.0L-22.0,3.0" stroke-linecap="round" stroke="#191919" stroke-width="1"/>
        </g>
        <g id="group31" transform="translate(200.00,381.17)">
            <path fill="#cbcbcb" d="M11.0,.0L220.0,.0C226.1,.0,231.0,4.9,231.0,11.0L231.0,23.7C231.0,29.7,226.1,34.7,220.0,34.7L11.0,34.7C4.9,34.7,.0,29.7,.0,23.7L.0,11.0C.0,4.9,4.9,.0,11.0,.0z" stroke="#323232" id="shape32" fill-rule="nonzero"/>
            <g id="shape33" transform="translate(10.00,0.00)">
                <text xml:space="preserve" style="fill:#191919;font-family:Microsoft YaHei;font-size:10.00pt">
                    <tspan y="17.5" x="94.6">BIU</tspan>
                </text>
            </g>
        </g>
        <g id="group34" transform="translate(38.00,384.00)">
            <path fill="#cbcbcb" stroke-dasharray="2.5,2.5" d="M11.0,.0L83.0,.0C89.1,.0,94.0,4.9,94.0,11.0L94.0,18.0C94.0,24.1,89.1,29.0,83.0,29.0L11.0,29.0C4.9,29.0,.0,24.1,.0,18.0L.0,11.0C.0,4.9,4.9,.0,11.0,.0z" stroke="#323232" id="shape35" fill-rule="nonzero"/>
            <g id="shape36" transform="translate(10.00,0.00)">
                <text xml:space="preserve" style="fill:#191919;font-family:Microsoft YaHei;font-size:10.00pt">
                    <tspan y="17.5" x="10.1">AHB/ICB</tspan>
                </text>
            </g>
        </g>
        <g id="shape37" transform="translate(132.00,398.50)">
            <path fill="none" d="M13.1,.0L54.9,.0" stroke="#191919" stroke-width="3"/>
            <path fill="#191919" d="M13.1,6.5L.0,.0L13.1,-6.5L13.1,6.5" stroke-linecap="round" stroke="#191919" stroke-width="1"/>
            <path fill="#191919" d="M54.9,-6.5L68.0,.0L54.9,6.5L54.9,-6.5" stroke-linecap="round" stroke="#191919" stroke-width="1"/>
        </g>
        <g id="shape38" transform="translate(431.00,398.50)">
            <path fill="none" d="M13.1,.0L81.9,.0" stroke="#191919" stroke-width="3"/>
            <path fill="#191919" d="M13.1,6.5L.0,.0L13.1,-6.5L13.1,6.5" stroke-linecap="round" stroke="#191919" stroke-width="1"/>
            <path fill="#191919" d="M81.9,-6.5L95.0,.0L81.9,6.5L81.9,-6.5" stroke-linecap="round" stroke="#191919" stroke-width="1"/>
        </g>
        <g id="shape39" transform="translate(631.00,228.31)">
            <path fill="none" d="M.0,13.1L.0,17.4L.1,17.4L.1,36.3" stroke="#191919" stroke-width="3"/>
            <path fill="#191919" d="M-6.5,13.1L.0,.0L6.5,13.1L-6.5,13.1" stroke-linecap="round" stroke="#191919" stroke-width="1"/>
            <path fill="#191919" d="M6.6,36.3L.1,49.4L-6.4,36.3L6.6,36.3" stroke-linecap="round" stroke="#191919" stroke-width="1"/>
        </g>
        <g id="shape40" transform="translate(472.00,142.87)">
            <path fill="none" d="M13.1,.0L35.2,.0" stroke="#191919" stroke-width="3"/>
            <path fill="#191919" d="M13.1,6.5L.0,.0L13.1,-6.5L13.1,6.5" stroke-linecap="round" stroke="#191919" stroke-width="1"/>
            <path fill="#191919" d="M35.2,-6.5L48.3,.0L35.2,6.5L35.2,-6.5" stroke-linecap="round" stroke="#191919" stroke-width="1"/>
        </g>
        <g id="shape41" transform="translate(741.75,142.87)">
            <path fill="none" d="M13.1,.0L54.4,.0" stroke="#191919" stroke-width="3"/>
            <path fill="#191919" d="M13.1,6.5L.0,.0L13.1,-6.5L13.1,6.5" stroke-linecap="round" stroke="#191919" stroke-width="1"/>
            <path fill="#191919" d="M54.4,-6.5L67.5,.0L54.4,6.5L54.4,-6.5" stroke-linecap="round" stroke="#191919" stroke-width="1"/>
        </g>
        <g id="shape42" transform="translate(897.61,227.37)">
            <path fill="none" d="M.0,13.1L.0,18.3L-0.2,18.3L-0.2,37.2" stroke="#191919" stroke-width="3"/>
            <path fill="#191919" d="M-6.5,13.1L.0,.0L6.5,13.1L-6.5,13.1" stroke-linecap="round" stroke="#191919" stroke-width="1"/>
            <path fill="#191919" d="M6.3,37.2L-0.2,50.3L-6.7,37.2L6.3,37.2" stroke-linecap="round" stroke="#191919" stroke-width="1"/>
        </g>
        <g id="group43" transform="translate(520.25,57.43)">
            <g id="group44">
                <path fill="#bcbcbc" d="M11.0,.0L210.5,.0C216.6,.0,221.5,4.9,221.5,11.0L221.5,159.9C221.5,166.0,216.6,170.9,210.5,170.9L11.0,170.9C4.9,170.9,.0,166.0,.0,159.9L.0,11.0C.0,4.9,4.9,.0,11.0,.0z" stroke="#323232" id="shape45" fill-rule="nonzero"/>
                <g id="shape46" transform="translate(10.00,0.00)">
                    <text xml:space="preserve" style="fill:#191919;font-family:Microsoft YaHei;font-size:10.00pt">
                        <tspan y="17.5" x="88.2">EPU</tspan>
                    </text>
                </g>
            </g>
            <g id="group47" transform="translate(30.25,39.76)">
                <path fill="#e6dfd0" d="M11.0,.0L150.0,.0C156.1,.0,161.0,4.9,161.0,11.0L161.0,22.4C161.0,28.5,156.1,33.4,150.0,33.4L11.0,33.4C4.9,33.4,.0,28.5,.0,22.4L.0,11.0C.0,4.9,4.9,.0,11.0,.0z" stroke="#323232" id="shape48" fill-rule="nonzero"/>
                <g id="shape49" transform="translate(10.00,0.00)">
                    <text xml:space="preserve" style="fill:#191919;font-family:Microsoft YaHei;font-size:10.00pt">
                        <tspan y="17.5" x="47.4">sie_ep0</tspan>
                    </text>
                </g>
            </g>
            <g id="group50" transform="translate(30.25,115.67)">
                <path fill="#e6dfd0" d="M11.0,.0L150.0,.0C156.1,.0,161.0,4.9,161.0,11.0L161.0,18.8C161.0,24.8,156.1,29.8,150.0,29.8L11.0,29.8C4.9,29.8,.0,24.8,.0,18.8L.0,11.0C.0,4.9,4.9,.0,11.0,.0z" stroke="#323232" id="shape51" fill-rule="nonzero"/>
                <g id="shape52" transform="translate(10.00,0.00)">
                    <text xml:space="preserve" style="fill:#191919;font-family:Microsoft YaHei;font-size:10.00pt">
                        <tspan y="17.5" x="47.6">sie_epx</tspan>
                    </text>
                </g>
            </g>
        </g>
        <g id="group53" transform="translate(809.22,58.37)">
            <g id="group54">
                <path fill="#e6dfd0" d="M11.0,.0L165.8,.0C171.8,.0,176.8,4.9,176.8,11.0L176.8,158.0C176.8,164.1,171.8,169.0,165.8,169.0L11.0,169.0C4.9,169.0,.0,164.1,.0,158.0L.0,11.0C.0,4.9,4.9,.0,11.0,.0z" stroke="#323232" id="shape55" fill-rule="nonzero"/>
                <g id="shape56" transform="translate(10.00,0.00)">
                    <text xml:space="preserve" style="fill:#191919;font-family:Microsoft YaHei;font-size:10.00pt">
                        <tspan y="17.5" x="62.1">MEM</tspan>
                    </text>
                </g>
            </g>
            <g id="group57" transform="translate(15.02,37.88)">
                <path fill="#dadada" d="M11.0,.0L56.0,.0C62.1,.0,67.0,4.9,67.0,11.0L67.0,18.6C67.0,24.7,62.1,29.6,56.0,29.6L11.0,29.6C4.9,29.6,.0,24.7,.0,18.6L.0,11.0C.0,4.9,4.9,.0,11.0,.0z" stroke="#323232" id="shape58" fill-rule="nonzero"/>
                <g id="shape59" transform="translate(10.00,0.00)">
                    <text xml:space="preserve" style="fill:#191919;font-family:Microsoft YaHei;font-size:10.00pt">
                        <tspan y="17.5" x="4.9">rx fifo</tspan>
                    </text>
                </g>
            </g>
            <g id="group60" transform="translate(94.75,37.88)">
                <path fill="#dadada" d="M11.0,.0L56.0,.0C62.1,.0,67.0,4.9,67.0,11.0L67.0,18.6C67.0,24.7,62.1,29.6,56.0,29.6L11.0,29.6C4.9,29.6,.0,24.7,.0,18.6L.0,11.0C.0,4.9,4.9,.0,11.0,.0z" stroke="#323232" id="shape61" fill-rule="nonzero"/>
                <g id="shape62" transform="translate(10.00,0.00)">
                    <text xml:space="preserve" style="fill:#191919;font-family:Microsoft YaHei;font-size:10.00pt">
                        <tspan y="17.5" x="4.9">tx fifo</tspan>
                    </text>
                </g>
            </g>
            <g id="group63" transform="translate(15.02,114.86)">
                <path fill="#dadada" d="M11.0,.0L56.0,.0C62.1,.0,67.0,4.9,67.0,11.0L67.0,18.6C67.0,24.7,62.1,29.6,56.0,29.6L11.0,29.6C4.9,29.6,.0,24.7,.0,18.6L.0,11.0C.0,4.9,4.9,.0,11.0,.0z" stroke="#323232" id="shape64" fill-rule="nonzero"/>
                <g id="shape65" transform="translate(10.00,0.00)">
                    <text xml:space="preserve" style="fill:#191919;font-family:Microsoft YaHei;font-size:10.00pt">
                        <tspan y="17.5" x="4.9">rx fifo</tspan>
                    </text>
                </g>
            </g>
            <g id="group66" transform="translate(94.75,114.86)">
                <path fill="#dadada" d="M11.0,.0L56.0,.0C62.1,.0,67.0,4.9,67.0,11.0L67.0,18.6C67.0,24.7,62.1,29.6,56.0,29.6L11.0,29.6C4.9,29.6,.0,24.7,.0,18.6L.0,11.0C.0,4.9,4.9,.0,11.0,.0z" stroke="#323232" id="shape67" fill-rule="nonzero"/>
                <g id="shape68" transform="translate(10.00,0.00)">
                    <text xml:space="preserve" style="fill:#191919;font-family:Microsoft YaHei;font-size:10.00pt">
                        <tspan y="17.5" x="4.9">tx fifo</tspan>
                    </text>
                </g>
            </g>
        </g>
        <g id="shape69" transform="translate(571.00,122.37)">
            <text xml:space="preserve" style="fill:#191919;font-family:Microsoft YaHei;font-size:14.00pt">
                <tspan y="26.3" x="46.3">......</tspan>
            </text>
        </g>
        <g id="shape70" transform="translate(837.61,122.37)">
            <text xml:space="preserve" style="fill:#191919;font-family:Microsoft YaHei;font-size:14.00pt">
                <tspan y="26.3" x="46.3">......</tspan>
            </text>
        </g>
        <g id="group71" transform="translate(526.00,381.17)">
            <path fill="#f3efdc" d="M11.0,.0L449.0,.0C455.1,.0,460.0,4.9,460.0,11.0L460.0,23.7C460.0,29.7,455.1,34.7,449.0,34.7L11.0,34.7C4.9,34.7,.0,29.7,.0,23.7L.0,11.0C.0,4.9,4.9,.0,11.0,.0z" stroke="#323232" id="shape72" fill-rule="nonzero"/>
            <g id="shape73" transform="translate(10.00,0.00)">
                <text xml:space="preserve" style="fill:#191919;font-family:Microsoft YaHei;font-size:10.00pt">
                    <tspan y="17.5" x="207.7">CSR</tspan>
                </text>
            </g>
        </g>
        <g id="shape74" transform="translate(754.96,312.33)">
            <path fill="none" d="M.0,13.1L.0,36.8L-0.2,36.8L-0.2,55.8" stroke="#191919" stroke-width="3"/>
            <path fill="#191919" d="M-6.5,13.1L.0,.0L6.5,13.1L-6.5,13.1" stroke-linecap="round" stroke="#191919" stroke-width="1"/>
            <path fill="#191919" d="M6.3,55.8L-0.2,68.8L-6.7,55.8L6.3,55.8" stroke-linecap="round" stroke="#191919" stroke-width="1"/>
        </g>
        <g id="shape75" transform="translate(336.00,229.62)">
            <path fill="none" d="M.0,13.1L.0,16.1L-0.6,16.1L-0.6,35.0" stroke="#191919" stroke-width="3"/>
            <path fill="#191919" d="M-6.5,13.1L.0,.0L6.5,13.1L-6.5,13.1" stroke-linecap="round" stroke="#191919" stroke-width="1"/>
            <path fill="#191919" d="M6.0,35.0L-0.6,48.1L-7.1,35.0L6.0,35.0" stroke-linecap="round" stroke="#191919" stroke-width="1"/>
        </g>
        <g id="shape76" transform="translate(41.19,152.79)">
            <text xml:space="preserve" style="fill:#191919;font-family:Microsoft YaHei;font-size:10.00pt">
                <tspan y="22.2" x="29.5">ULPI </tspan>
                <tspan y="39.4" x="17.5">wrapper</tspan>
            </text>
        </g>
    </g>
</svg>
